<svg width="18" height="17" viewBox="0 0 18 17" fill="none" xmlns="http://www.w3.org/2000/svg">
<path d="M3.66667 5.5H12.8333V3.66667H3.66667V5.5ZM1.83333 16.5C1.32917 16.5 0.897722 16.3206 0.539 15.9619C0.180278 15.6032 0.000611111 15.1714 0 14.6667V1.83333C0 1.32917 0.179667 0.897722 0.539 0.539C0.898333 0.180278 1.32978 0.000611111 1.83333 0H14.6667C15.1708 0 15.6026 0.179667 15.9619 0.539C16.3213 0.898333 16.5006 1.32978 16.5 1.83333V7.74583C16.1486 7.05833 15.6444 6.51231 14.9875 6.10775C14.3306 5.70319 13.6125 5.50061 12.8333 5.5C12.1458 5.5 11.5042 5.66042 10.9083 5.98125C10.3125 6.30208 9.81597 6.75278 9.41875 7.33333H3.66667V9.16667H8.73125C8.70069 9.47222 8.70069 9.77778 8.73125 10.0833C8.76181 10.3889 8.83056 10.6944 8.9375 11H3.66667V12.8333H7.26458C6.97431 13.1694 6.76042 13.5401 6.62292 13.9452C6.48542 14.3504 6.41667 14.7742 6.41667 15.2167V16.5H1.83333ZM8.25 16.5V15.2167C8.25 14.85 8.34564 14.5102 8.53692 14.1973C8.72819 13.8844 8.99922 13.6589 9.35 13.5208C9.9 13.2917 10.4692 13.1199 11.0577 13.0057C11.6462 12.8914 12.2381 12.8339 12.8333 12.8333C13.4286 12.8327 14.0207 12.8902 14.6098 13.0057C15.1989 13.1212 15.7679 13.2929 16.3167 13.5208C16.6681 13.6583 16.9394 13.8838 17.1307 14.1973C17.3219 14.5108 17.4173 14.8506 17.4167 15.2167V16.5H8.25ZM11.2063 11.2521C10.7632 10.809 10.5417 10.2667 10.5417 9.625C10.5417 8.98333 10.7632 8.44097 11.2063 7.99792C11.6493 7.55486 12.1917 7.33333 12.8333 7.33333C13.475 7.33333 14.0174 7.55486 14.4604 7.99792C14.9035 8.44097 15.125 8.98333 15.125 9.625C15.125 10.2667 14.9035 10.809 14.4604 11.2521C14.0174 11.6951 13.475 11.9167 12.8333 11.9167C12.1917 11.9167 11.6493 11.6951 11.2063 11.2521Z" fill="#3E3E3E"/>
</svg>
