<svg width="18" height="20" viewBox="0 0 18 20" fill="none" xmlns="http://www.w3.org/2000/svg">
<path d="M2 20C1.45 20 0.979333 19.8043 0.588 19.413C0.196667 19.0217 0.000666667 18.5507 0 18V4C0 3.45 0.196 2.97934 0.588 2.588C0.98 2.19667 1.45067 2.00067 2 2H3V1C3 0.71667 3.096 0.479337 3.288 0.288004C3.48 0.0966702 3.71733 0.000670115 4 3.44827e-06C4.28267 -0.000663218 4.52033 0.0953369 4.713 0.288004C4.90567 0.48067 5.00133 0.718003 5 1V2H13V1C13 0.71667 13.096 0.479337 13.288 0.288004C13.48 0.0966702 13.7173 0.000670115 14 3.44827e-06C14.2827 -0.000663218 14.5203 0.0953369 14.713 0.288004C14.9057 0.48067 15.0013 0.718003 15 1V2H16C16.55 2 17.021 2.196 17.413 2.588C17.805 2.98 18.0007 3.45067 18 4V18C18 18.55 17.8043 19.021 17.413 19.413C17.0217 19.805 16.5507 20.0007 16 20H2ZM2 18H16V8H2V18Z" fill="#3E3E3E"/>
</svg>
