<svg width="20" height="16" viewBox="0 0 20 16" fill="none" xmlns="http://www.w3.org/2000/svg">
<path d="M7 14H18V11.325H7V14ZM2 4.675H5V2H2V4.675ZM2 9.35H5V6.675H2V9.35ZM2 14H5V11.325H2V14ZM7 9.35H18V6.675H7V9.35ZM7 4.675H18V2H7V4.675ZM2 16C1.45 16 0.979333 15.8043 0.588 15.413C0.196667 15.0217 0.000666667 14.5507 0 14V2C0 1.45 0.196 0.979333 0.588 0.588C0.98 0.196666 1.45067 0.000666667 2 0H18C18.55 0 19.021 0.196 19.413 0.588C19.805 0.98 20.0007 1.45067 20 2V14C20 14.55 19.8043 15.021 19.413 15.413C19.0217 15.805 18.5507 16.0007 18 16H2Z" fill="white"/>
</svg>
