<svg width="43" height="46" viewBox="0 0 43 46" fill="none" xmlns="http://www.w3.org/2000/svg">
<g filter="url(#filter0_d_1795_413)">
<path d="M21.5 19C24.1522 19 26.6957 17.9991 28.5711 16.2175C30.4464 14.4359 31.5 12.0196 31.5 9.5C31.5 6.98044 30.4464 4.56408 28.5711 2.78249C26.6957 1.00089 24.1522 0 21.5 0C18.8478 0 16.3043 1.00089 14.4289 2.78249C12.5536 4.56408 11.5 6.98044 11.5 9.5C11.5 12.0196 12.5536 14.4359 14.4289 16.2175C16.3043 17.9991 18.8478 19 21.5 19ZM14 23.0969C8.21875 24.7074 4 29.784 4 35.7957C4 37.0129 5.03906 38 6.32031 38H36.6797C37.9609 38 39 37.0129 39 35.7957C39 29.784 34.7812 24.7074 29 23.0969V26.8672C31.1562 27.3941 32.75 29.257 32.75 31.4688V34.4375C32.75 35.0906 32.1875 35.625 31.5 35.625H30.25C29.5625 35.625 29 35.0906 29 34.4375C29 33.7844 29.5625 33.25 30.25 33.25V31.4688C30.25 30.1551 29.1328 29.0938 27.75 29.0938C26.3672 29.0938 25.25 30.1551 25.25 31.4688V33.25C25.9375 33.25 26.5 33.7844 26.5 34.4375C26.5 35.0906 25.9375 35.625 25.25 35.625H24C23.3125 35.625 22.75 35.0906 22.75 34.4375V31.4688C22.75 29.257 24.3438 27.3941 26.5 26.8672V22.6293C26.0312 22.5848 25.5547 22.5625 25.0703 22.5625H17.9297C17.4453 22.5625 16.9688 22.5848 16.5 22.6293V27.4832C18.3047 27.9953 19.625 29.5836 19.625 31.4688C19.625 33.7621 17.6641 35.625 15.25 35.625C12.8359 35.625 10.875 33.7621 10.875 31.4688C10.875 29.5836 12.1953 27.9953 14 27.4832V23.0969ZM15.25 33.25C15.7473 33.25 16.2242 33.0623 16.5758 32.7283C16.9275 32.3942 17.125 31.9412 17.125 31.4688C17.125 30.9963 16.9275 30.5433 16.5758 30.2092C16.2242 29.8752 15.7473 29.6875 15.25 29.6875C14.7527 29.6875 14.2758 29.8752 13.9242 30.2092C13.5725 30.5433 13.375 30.9963 13.375 31.4688C13.375 31.9412 13.5725 32.3942 13.9242 32.7283C14.2758 33.0623 14.7527 33.25 15.25 33.25Z" fill="white"/>
</g>
<defs>
<filter id="filter0_d_1795_413" x="0" y="0" width="43" height="46" filterUnits="userSpaceOnUse" color-interpolation-filters="sRGB">
<feFlood flood-opacity="0" result="BackgroundImageFix"/>
<feColorMatrix in="SourceAlpha" type="matrix" values="0 0 0 0 0 0 0 0 0 0 0 0 0 0 0 0 0 0 127 0" result="hardAlpha"/>
<feOffset dy="4"/>
<feGaussianBlur stdDeviation="2"/>
<feComposite in2="hardAlpha" operator="out"/>
<feColorMatrix type="matrix" values="0 0 0 0 0 0 0 0 0 0 0 0 0 0 0 0 0 0 0.25 0"/>
<feBlend mode="normal" in2="BackgroundImageFix" result="effect1_dropShadow_1795_413"/>
<feBlend mode="normal" in="SourceGraphic" in2="effect1_dropShadow_1795_413" result="shape"/>
</filter>
</defs>
</svg>
