<svg width="17" height="12" viewBox="0 0 17 12" fill="none" xmlns="http://www.w3.org/2000/svg">
<path d="M3.4 6.75H11.05V5.25H3.4V6.75ZM3.4 4.5H11.05V3H3.4V4.5ZM1.7 12C1.2325 12 0.832433 11.8532 0.4998 11.5597C0.167167 11.2662 0.000566667 10.913 0 10.5V1.5C0 1.0875 0.1666 0.7345 0.4998 0.441C0.833 0.1475 1.23307 0.0005 1.7 0H15.3C15.7675 0 16.1678 0.147 16.501 0.441C16.8342 0.735 17.0006 1.088 17 1.5V10.5C17 10.9125 16.8337 11.2657 16.501 11.5597C16.1684 11.8537 15.7681 12.0005 15.3 12H1.7ZM1.7 10.5H15.3V1.5H1.7V10.5Z" fill="#3E3E3E"/>
</svg>
