<svg width="18" height="19" viewBox="0 0 18 19" fill="none" xmlns="http://www.w3.org/2000/svg">
<path d="M2 19C1.45 19 0.979333 18.8141 0.588 18.4423C0.196667 18.0706 0.000666667 17.6231 0 17.1V3.8C0 3.2775 0.196 2.83037 0.588 2.4586C0.98 2.08684 1.45067 1.90064 2 1.9H3V0.950003C3 0.680836 3.096 0.45537 3.288 0.273603C3.48 0.0918367 3.71733 0.000636609 4 3.27586e-06C4.28267 -0.000630057 4.52033 0.09057 4.713 0.273603C4.90567 0.456637 5.00133 0.682103 5 0.950003V1.9H13V0.950003C13 0.680836 13.096 0.45537 13.288 0.273603C13.48 0.0918367 13.7173 0.000636609 14 3.27586e-06C14.2827 -0.000630057 14.5203 0.09057 14.713 0.273603C14.9057 0.456637 15.0013 0.682103 15 0.950003V1.9H16C16.55 1.9 17.021 2.0862 17.413 2.4586C17.805 2.831 18.0007 3.27814 18 3.8V17.1C18 17.6225 17.8043 18.0699 17.413 18.4423C17.0217 18.8147 16.5507 19.0006 16 19H2ZM2 17.1H16V7.6H2V17.1Z" fill="white"/>
</svg>
