<svg width="17" height="16" viewBox="0 0 17 16" fill="none" xmlns="http://www.w3.org/2000/svg">
<path d="M7.02042 16C6.73708 16 6.49975 15.904 6.30842 15.712C6.11708 15.52 6.02108 15.2827 6.02042 15V9L0.220415 1.6C-0.0295846 1.26667 -0.066918 0.916667 0.108415 0.55C0.283749 0.183334 0.587749 0 1.02042 0H15.0204C15.4537 0 15.7581 0.183334 15.9334 0.55C16.1087 0.916667 16.0711 1.26667 15.8204 1.6L10.0204 9V15C10.0204 15.2833 9.92442 15.521 9.73242 15.713C9.54041 15.905 9.30308 16.0007 9.02042 16H7.02042Z" fill="white"/>
</svg>
