<svg width="23" height="19" viewBox="0 0 23 19" fill="none" xmlns="http://www.w3.org/2000/svg">
<path d="M12.6875 10.6458C12.0069 9.96528 11.6667 9.13889 11.6667 8.16667C11.6667 7.19444 12.0069 6.36806 12.6875 5.6875C13.3681 5.00694 14.1944 4.66667 15.1667 4.66667C16.1389 4.66667 16.9653 5.00694 17.6458 5.6875C18.3264 6.36806 18.6667 7.19444 18.6667 8.16667C18.6667 9.13889 18.3264 9.96528 17.6458 10.6458C16.9653 11.3264 16.1389 11.6667 15.1667 11.6667C14.1944 11.6667 13.3681 11.3264 12.6875 10.6458ZM8.16667 18.6667V16.45C8.16667 16.0417 8.26389 15.6528 8.45833 15.2833C8.65278 14.9139 8.925 14.6222 9.275 14.4083C10.15 13.8833 11.0787 13.4898 12.061 13.2277C13.0433 12.9656 14.0786 12.8341 15.1667 12.8333C16.2548 12.8326 17.2904 12.964 18.2735 13.2277C19.2566 13.4913 20.1849 13.8849 21.0583 14.4083C21.4083 14.6222 21.6806 14.9139 21.875 15.2833C22.0694 15.6528 22.1667 16.0417 22.1667 16.45V18.6667H8.16667ZM0 11.6667V9.33333H9.33333V11.6667H0ZM0 2.33333V0H14V2.33333H0ZM9.45 7H0V4.66667H10.5C10.2278 4.99722 10.0092 5.35694 9.84433 5.74583C9.67944 6.13472 9.548 6.55278 9.45 7Z" fill="white"/>
</svg>
